<mxfile host="app.diagrams.net" agent="Mozilla/5.0 (Macintosh; Intel Mac OS X 10_15_7) AppleWebKit/537.36 (KHTML, like Gecko) Chrome/133.0.0.0 Safari/537.36" version="26.0.12">
  <diagram name="Page-1" id="VOynZer4dO6frkGX0q3r">
    <mxGraphModel dx="1434" dy="819" grid="0" gridSize="10" guides="1" tooltips="1" connect="1" arrows="1" fold="1" page="0" pageScale="1" pageWidth="850" pageHeight="1100" math="0" shadow="0">
      <root>
        <mxCell id="0" />
        <mxCell id="1" parent="0" />
        <mxCell id="XL5NGab5W7cVgB7Eb7kB-7" value="VPC" style="sketch=0;outlineConnect=0;gradientColor=none;html=1;whiteSpace=wrap;fontSize=12;fontStyle=0;shape=mxgraph.aws4.group;grIcon=mxgraph.aws4.group_vpc;strokeColor=#879196;fillColor=none;verticalAlign=top;align=left;spacingLeft=30;fontColor=#879196;dashed=0;" vertex="1" parent="1">
          <mxGeometry x="311" y="185" width="1148" height="583" as="geometry" />
        </mxCell>
        <mxCell id="XL5NGab5W7cVgB7Eb7kB-4" style="edgeStyle=orthogonalEdgeStyle;rounded=0;orthogonalLoop=1;jettySize=auto;html=1;" edge="1" parent="1" source="XL5NGab5W7cVgB7Eb7kB-1" target="XL5NGab5W7cVgB7Eb7kB-2">
          <mxGeometry relative="1" as="geometry" />
        </mxCell>
        <mxCell id="XL5NGab5W7cVgB7Eb7kB-8" value="WS&amp;nbsp;&lt;div&gt;request&lt;/div&gt;" style="edgeLabel;html=1;align=center;verticalAlign=middle;resizable=0;points=[];" vertex="1" connectable="0" parent="XL5NGab5W7cVgB7Eb7kB-4">
          <mxGeometry x="0.0444" y="1" relative="1" as="geometry">
            <mxPoint as="offset" />
          </mxGeometry>
        </mxCell>
        <mxCell id="XL5NGab5W7cVgB7Eb7kB-1" value="" style="shape=actor;whiteSpace=wrap;html=1;" vertex="1" parent="1">
          <mxGeometry x="20" y="350" width="40" height="60" as="geometry" />
        </mxCell>
        <mxCell id="XL5NGab5W7cVgB7Eb7kB-5" style="edgeStyle=orthogonalEdgeStyle;rounded=0;orthogonalLoop=1;jettySize=auto;html=1;exitX=1;exitY=0.5;exitDx=0;exitDy=0;exitPerimeter=0;" edge="1" parent="1" source="XL5NGab5W7cVgB7Eb7kB-2" target="XL5NGab5W7cVgB7Eb7kB-3">
          <mxGeometry relative="1" as="geometry" />
        </mxCell>
        <mxCell id="XL5NGab5W7cVgB7Eb7kB-10" value="forward&lt;br&gt;request" style="edgeLabel;html=1;align=center;verticalAlign=middle;resizable=0;points=[];" vertex="1" connectable="0" parent="XL5NGab5W7cVgB7Eb7kB-5">
          <mxGeometry x="-0.2258" y="-1" relative="1" as="geometry">
            <mxPoint as="offset" />
          </mxGeometry>
        </mxCell>
        <mxCell id="XL5NGab5W7cVgB7Eb7kB-2" value="" style="sketch=0;points=[[0,0,0],[0.25,0,0],[0.5,0,0],[0.75,0,0],[1,0,0],[0,1,0],[0.25,1,0],[0.5,1,0],[0.75,1,0],[1,1,0],[0,0.25,0],[0,0.5,0],[0,0.75,0],[1,0.25,0],[1,0.5,0],[1,0.75,0]];outlineConnect=0;fontColor=#232F3E;fillColor=#8C4FFF;strokeColor=#ffffff;dashed=0;verticalLabelPosition=bottom;verticalAlign=top;align=center;html=1;fontSize=12;fontStyle=0;aspect=fixed;shape=mxgraph.aws4.resourceIcon;resIcon=mxgraph.aws4.api_gateway;" vertex="1" parent="1">
          <mxGeometry x="160" y="341" width="78" height="78" as="geometry" />
        </mxCell>
        <mxCell id="XL5NGab5W7cVgB7Eb7kB-14" style="edgeStyle=orthogonalEdgeStyle;rounded=0;orthogonalLoop=1;jettySize=auto;html=1;" edge="1" parent="1" source="XL5NGab5W7cVgB7Eb7kB-3" target="XL5NGab5W7cVgB7Eb7kB-13">
          <mxGeometry relative="1" as="geometry" />
        </mxCell>
        <mxCell id="XL5NGab5W7cVgB7Eb7kB-3" value="ecs-web" style="sketch=0;outlineConnect=0;fontColor=#232F3E;gradientColor=none;fillColor=#8C4FFF;strokeColor=none;dashed=0;verticalLabelPosition=bottom;verticalAlign=top;align=center;html=1;fontSize=12;fontStyle=0;aspect=fixed;pointerEvents=1;shape=mxgraph.aws4.application_load_balancer;" vertex="1" parent="1">
          <mxGeometry x="320" y="341" width="78" height="78" as="geometry" />
        </mxCell>
        <mxCell id="XL5NGab5W7cVgB7Eb7kB-17" style="edgeStyle=orthogonalEdgeStyle;rounded=0;orthogonalLoop=1;jettySize=auto;html=1;" edge="1" parent="1" source="XL5NGab5W7cVgB7Eb7kB-13" target="XL5NGab5W7cVgB7Eb7kB-16">
          <mxGeometry relative="1" as="geometry" />
        </mxCell>
        <mxCell id="XL5NGab5W7cVgB7Eb7kB-39" value="/getWindowStickerAsJson" style="edgeLabel;html=1;align=center;verticalAlign=middle;resizable=0;points=[];" vertex="1" connectable="0" parent="XL5NGab5W7cVgB7Eb7kB-17">
          <mxGeometry x="-0.0273" y="-4" relative="1" as="geometry">
            <mxPoint as="offset" />
          </mxGeometry>
        </mxCell>
        <mxCell id="XL5NGab5W7cVgB7Eb7kB-16" value="WS&amp;nbsp;&lt;div&gt;microservice&lt;/div&gt;" style="outlineConnect=0;dashed=0;verticalLabelPosition=bottom;verticalAlign=top;align=center;html=1;shape=mxgraph.aws3.ec2;fillColor=#F58534;gradientColor=none;" vertex="1" parent="1">
          <mxGeometry x="746" y="333.5" width="76.5" height="93" as="geometry" />
        </mxCell>
        <mxCell id="XL5NGab5W7cVgB7Eb7kB-13" value="recon&lt;div&gt;appservice&lt;/div&gt;" style="outlineConnect=0;dashed=0;verticalLabelPosition=bottom;verticalAlign=top;align=center;html=1;shape=mxgraph.aws3.ec2;fillColor=#F58534;gradientColor=none;" vertex="1" parent="1">
          <mxGeometry x="470" y="333.5" width="76.5" height="93" as="geometry" />
        </mxCell>
        <mxCell id="XL5NGab5W7cVgB7Eb7kB-21" value="" style="sketch=0;outlineConnect=0;fontColor=#232F3E;gradientColor=none;fillColor=#C925D1;strokeColor=none;dashed=0;verticalLabelPosition=bottom;verticalAlign=top;align=center;html=1;fontSize=12;fontStyle=0;aspect=fixed;pointerEvents=1;shape=mxgraph.aws4.elasticache_for_redis;" vertex="1" parent="1">
          <mxGeometry x="640" y="591" width="78" height="69" as="geometry" />
        </mxCell>
        <mxCell id="XL5NGab5W7cVgB7Eb7kB-22" value="" style="sketch=0;outlineConnect=0;fontColor=#232F3E;gradientColor=none;fillColor=#C925D1;strokeColor=none;dashed=0;verticalLabelPosition=bottom;verticalAlign=top;align=center;html=1;fontSize=12;fontStyle=0;aspect=fixed;pointerEvents=1;shape=mxgraph.aws4.rds_instance;" vertex="1" parent="1">
          <mxGeometry x="499" y="586.5" width="78" height="78" as="geometry" />
        </mxCell>
        <mxCell id="XL5NGab5W7cVgB7Eb7kB-27" value="&lt;span style=&quot;color: rgb(22, 25, 31); font-family: &amp;quot;Amazon Ember&amp;quot;, &amp;quot;Helvetica Neue&amp;quot;, Roboto, Arial, sans-serif; text-align: start; white-space: pre-wrap; background-color: rgb(255, 255, 255);&quot;&gt;&lt;font&gt;api.reconvelocity.com/v2/windowsticker&lt;/font&gt;&lt;/span&gt;" style="outlineConnect=0;dashed=0;verticalLabelPosition=bottom;verticalAlign=top;align=center;html=1;shape=mxgraph.aws3.lambda_function;fillColor=#F58534;gradientColor=none;" vertex="1" parent="1">
          <mxGeometry x="989" y="344" width="69" height="72" as="geometry" />
        </mxCell>
        <mxCell id="XL5NGab5W7cVgB7Eb7kB-28" style="edgeStyle=orthogonalEdgeStyle;rounded=0;orthogonalLoop=1;jettySize=auto;html=1;exitX=1;exitY=0.5;exitDx=0;exitDy=0;exitPerimeter=0;entryX=0;entryY=0.5;entryDx=0;entryDy=0;entryPerimeter=0;" edge="1" parent="1" source="XL5NGab5W7cVgB7Eb7kB-16" target="XL5NGab5W7cVgB7Eb7kB-27">
          <mxGeometry relative="1" as="geometry" />
        </mxCell>
        <mxCell id="XL5NGab5W7cVgB7Eb7kB-38" value="getWindowSticker()" style="edgeLabel;html=1;align=center;verticalAlign=middle;resizable=0;points=[];" vertex="1" connectable="0" parent="XL5NGab5W7cVgB7Eb7kB-28">
          <mxGeometry x="-0.1148" y="-1" relative="1" as="geometry">
            <mxPoint x="12" y="-1" as="offset" />
          </mxGeometry>
        </mxCell>
        <mxCell id="XL5NGab5W7cVgB7Eb7kB-29" value="" style="sketch=0;outlineConnect=0;fontColor=#232F3E;gradientColor=none;fillColor=#C925D1;strokeColor=none;dashed=0;verticalLabelPosition=bottom;verticalAlign=top;align=center;html=1;fontSize=12;fontStyle=0;aspect=fixed;pointerEvents=1;shape=mxgraph.aws4.dynamodb_dax;" vertex="1" parent="1">
          <mxGeometry x="901" y="200" width="78" height="72" as="geometry" />
        </mxCell>
        <mxCell id="XL5NGab5W7cVgB7Eb7kB-37" value="&lt;h1 style=&quot;margin-top: 0px;&quot;&gt;Functionality&lt;/h1&gt;&lt;p&gt;function 1: / GET oemPdfUrl&lt;br&gt;function 2: / GET buildData&lt;/p&gt;" style="text;html=1;whiteSpace=wrap;overflow=hidden;rounded=0;" vertex="1" parent="1">
          <mxGeometry x="1108" y="221" width="180" height="120" as="geometry" />
        </mxCell>
        <mxCell id="XL5NGab5W7cVgB7Eb7kB-40" value="kinesis-sticker-request" style="sketch=0;points=[[0,0,0],[0.25,0,0],[0.5,0,0],[0.75,0,0],[1,0,0],[0,1,0],[0.25,1,0],[0.5,1,0],[0.75,1,0],[1,1,0],[0,0.25,0],[0,0.5,0],[0,0.75,0],[1,0.25,0],[1,0.5,0],[1,0.75,0]];outlineConnect=0;fontColor=#232F3E;fillColor=#8C4FFF;strokeColor=#ffffff;dashed=0;verticalLabelPosition=bottom;verticalAlign=top;align=center;html=1;fontSize=12;fontStyle=0;aspect=fixed;shape=mxgraph.aws4.resourceIcon;resIcon=mxgraph.aws4.kinesis;" vertex="1" parent="1">
          <mxGeometry x="1282" y="594" width="78" height="78" as="geometry" />
        </mxCell>
        <mxCell id="XL5NGab5W7cVgB7Eb7kB-41" value="kinesis-vin-decode" style="sketch=0;points=[[0,0,0],[0.25,0,0],[0.5,0,0],[0.75,0,0],[1,0,0],[0,1,0],[0.25,1,0],[0.5,1,0],[0.75,1,0],[1,1,0],[0,0.25,0],[0,0.5,0],[0,0.75,0],[1,0.25,0],[1,0.5,0],[1,0.75,0]];outlineConnect=0;fontColor=#232F3E;fillColor=#8C4FFF;strokeColor=#ffffff;dashed=0;verticalLabelPosition=bottom;verticalAlign=top;align=center;html=1;fontSize=12;fontStyle=0;aspect=fixed;shape=mxgraph.aws4.resourceIcon;resIcon=mxgraph.aws4.kinesis;" vertex="1" parent="1">
          <mxGeometry x="1282" y="478" width="78" height="78" as="geometry" />
        </mxCell>
      </root>
    </mxGraphModel>
  </diagram>
</mxfile>
